<svg width="93" height="93" viewBox="0 0 93 93" fill="none" xmlns="http://www.w3.org/2000/svg">
<g clip-path="url(#clip0)">
<path d="M90.582 17.626H84.4487V9.95937C84.4518 9.11258 83.7677 8.42354 82.9207 8.42067C82.8759 8.42048 82.8312 8.42239 82.7866 8.42603L78.7861 8.76337C69.0849 9.56568 59.5698 11.8858 50.5881 15.6388L46.1154 17.4988L41.6472 15.645C32.6646 11.8914 23.1483 9.57086 13.4462 8.76797L9.44416 8.42603C8.60025 8.35493 7.8585 8.98129 7.78739 9.8252C7.78356 9.86986 7.78183 9.91471 7.78202 9.95937V17.626H1.64869C0.801906 17.626 0.115356 18.3126 0.115356 19.1594V83.5594C0.115356 84.4062 0.801906 85.0927 1.64869 85.0927H90.582C91.4288 85.0927 92.1154 84.4062 92.1154 83.5594V19.1594C92.1154 18.3126 91.4288 17.626 90.582 17.626ZM3.18202 82.0291V20.6927H7.78202V74.3594C7.77915 75.1579 8.38941 75.8249 9.18502 75.8927L13.3112 76.2454C14.4357 76.3395 15.56 76.4554 16.6846 76.5934C17.0602 76.6379 17.4328 76.6977 17.8085 76.7468C18.5522 76.8464 19.2958 76.9461 20.0364 77.0642C20.478 77.1347 20.9181 77.2175 21.3582 77.2957C22.0298 77.4138 22.7014 77.5318 23.3699 77.6637C23.8299 77.7557 24.2899 77.8569 24.7499 77.9566C25.3954 78.0946 26.041 78.2356 26.6834 78.389C27.1434 78.4994 27.6111 78.6174 28.0742 78.7355C28.7074 78.898 29.3392 79.0636 29.9694 79.2384C30.4294 79.3672 30.8894 79.5022 31.3494 79.6371C31.975 79.8221 32.599 80.0143 33.2216 80.2136C33.6775 80.3587 34.1324 80.508 34.5862 80.6614C35.2134 80.8714 35.8359 81.0922 36.4584 81.3176C36.9 81.471 37.3432 81.6381 37.7817 81.8052C37.9718 81.8773 38.1604 81.9586 38.349 82.0291H3.18202ZM44.582 81.2594L41.7546 80.0787C32.7788 76.3182 23.2683 73.9898 13.5704 73.1787L10.8487 72.9518V11.6276L13.1886 11.8239C22.5737 12.5994 31.7789 14.8434 40.4681 18.474L44.582 20.1821V81.2594ZM47.6487 81.2594V20.1821L51.7672 18.4724C60.4549 14.8427 69.6585 12.5992 79.0422 11.8239L81.382 11.6276V72.9472L78.8628 73.1526C69.1589 73.9582 59.6399 76.2728 50.6494 80.0128L47.6487 81.2594ZM89.0487 82.026H53.9047C54.1148 81.9448 54.3233 81.8589 54.5334 81.7792C54.9934 81.6028 55.4534 81.4357 55.9241 81.2686C56.5252 81.0508 57.1287 80.8398 57.735 80.6353C58.2072 80.482 58.6826 80.3286 59.1564 80.1753C59.762 79.9821 60.3708 79.7981 60.9795 79.6172C61.4579 79.4761 61.9378 79.3366 62.4178 79.2047C63.0311 79.033 63.6444 78.872 64.2731 78.714C64.7484 78.5929 65.2253 78.4718 65.7037 78.3583C66.3416 78.205 66.984 78.067 67.6265 77.9305C68.0865 77.8308 68.5465 77.7281 69.0157 77.6361C69.6904 77.5027 70.3681 77.3846 71.0443 77.2666C71.4828 77.1899 71.9198 77.1132 72.3599 77.0366C73.1158 76.917 73.8733 76.8142 74.6323 76.713C74.9957 76.6655 75.3591 76.6072 75.724 76.5597C76.8485 76.4238 77.9786 76.3077 79.1142 76.2116L83.0411 75.8927C83.8384 75.8272 84.4514 75.1594 84.4487 74.3594V20.6927H89.0487V82.026Z" fill="#0E6F8E"/>
</g>
<defs>
<clipPath id="clip0">
<rect x="0.115356" y="0.756653" width="92" height="92" rx="6" fill="white"/>
</clipPath>
</defs>
</svg>
