<svg width="93" height="93" viewBox="0 0 93 93" fill="none" xmlns="http://www.w3.org/2000/svg">
<g clip-path="url(#clip0)">
<path d="M57.3487 53.89H55.662C55.0276 53.8912 54.4601 53.4954 54.2422 52.8995C54.0551 52.4088 53.8542 51.9289 53.638 51.4535C53.3693 50.8755 53.492 50.191 53.9447 49.7423L55.1468 48.5387C56.9314 46.7384 56.9282 43.835 55.1392 42.0389L50.806 37.7057C49.0076 35.9178 46.103 35.9178 44.3046 37.7057L43.1025 38.9063C42.6528 39.3573 41.9696 39.4797 41.3913 39.2129C40.916 38.9967 40.436 38.7959 39.9438 38.5996C39.3449 38.3832 38.9464 37.8136 38.9487 37.1767V35.49C38.9487 32.9495 36.8892 30.89 34.3487 30.89H28.2154C25.6748 30.89 23.6154 32.9495 23.6154 35.49V37.1767C23.6165 37.8111 23.2207 38.3786 22.6248 38.5965C22.1342 38.7836 21.6542 38.9845 21.1789 39.2007C20.6006 39.4681 19.9171 39.3456 19.4677 38.894L18.264 37.6919C16.4658 35.9052 13.5624 35.9052 11.7642 37.6919L7.43102 42.0389C5.64316 43.8373 5.64316 46.7418 7.43102 48.5402L8.63162 49.7423C9.08434 50.191 9.20701 50.8755 8.93829 51.4535C8.72209 51.9289 8.52122 52.4088 8.33262 52.901C8.11317 53.5004 7.54027 53.8965 6.90202 53.89H5.21536C2.67481 53.89 0.615356 55.9495 0.615356 58.49V64.6233C0.615356 67.1639 2.67481 69.2233 5.21536 69.2233H6.90202C7.53644 69.2222 8.10397 69.618 8.32189 70.2139C8.50896 70.7045 8.70982 71.1845 8.92602 71.6598C9.19474 72.2379 9.07207 72.9223 8.61936 73.371L7.41722 74.5747C5.63051 76.3729 5.63051 79.2763 7.41722 81.0745L11.7504 85.4077C13.5488 87.1955 16.4533 87.1955 18.2518 85.4077L19.4539 84.2071C19.9035 83.7561 20.5868 83.6336 21.1651 83.9004C21.6404 84.1166 22.1204 84.3175 22.6126 84.5137C23.2146 84.7276 23.6165 85.2979 23.6154 85.9367V87.6233C23.6154 90.1639 25.6748 92.2233 28.2154 92.2233H34.3487C36.8892 92.2233 38.9487 90.1639 38.9487 87.6233V85.9367C38.9475 85.3023 39.3433 84.7347 39.9392 84.5168C40.4299 84.3297 40.9098 84.1289 41.3852 83.9127C41.9634 83.6453 42.6469 83.7678 43.0964 84.2193L44.3 85.4215C46.1007 87.2053 49.0033 87.2019 50.7998 85.4138L55.133 81.0806C56.9209 79.2822 56.9209 76.3777 55.133 74.5793L53.9324 73.3771C53.4797 72.9285 53.357 72.244 53.6258 71.6659C53.842 71.1906 54.0428 70.7107 54.2391 70.2185C54.4555 69.6195 55.0251 69.221 55.662 69.2233H57.3487C59.8892 69.2233 61.9487 67.1639 61.9487 64.6233V58.49C61.9487 55.9495 59.8892 53.89 57.3487 53.89ZM58.882 64.6233C58.882 65.4701 58.1955 66.1567 57.3487 66.1567H55.662C53.7559 66.1638 52.0501 67.3419 51.3687 69.1221C51.2062 69.5515 51.0304 69.9741 50.8412 70.3902C50.0529 72.1305 50.4186 74.1768 51.7612 75.5361L52.9603 76.7367C53.5594 77.3351 53.56 78.306 52.9614 78.9052C52.9611 78.9056 52.9607 78.906 52.9603 78.9063L48.6271 83.2395C48.0283 83.8381 47.0577 83.8381 46.459 83.2395L45.2568 82.0389C43.8981 80.6952 41.8511 80.3293 40.111 81.1189C39.6954 81.3075 39.2722 81.4839 38.846 81.6464C37.0671 82.3276 35.8897 84.0319 35.882 85.9367V87.6233C35.882 88.4701 35.1955 89.1567 34.3487 89.1567H28.2154C27.3686 89.1567 26.682 88.4701 26.682 87.6233V85.9367C26.6749 84.0306 25.4968 82.3247 23.7166 81.6433C23.2872 81.4808 22.8646 81.3051 22.4485 81.1159C20.7082 80.3279 18.6621 80.6938 17.3026 82.0359L16.102 83.2349C15.5036 83.8341 14.5327 83.8347 13.9335 83.2361C13.9331 83.2357 13.9327 83.2353 13.9324 83.2349L9.59916 78.9063C9.00058 78.3076 9.00058 77.337 9.59916 76.7382L10.7998 75.5361C12.1424 74.1768 12.5081 72.1305 11.7198 70.3902C11.5312 69.9747 11.3548 69.5515 11.1923 69.1252C10.5126 67.3444 8.80796 66.1651 6.90202 66.1567H5.21536C4.36857 66.1567 3.68202 65.4701 3.68202 64.6233V58.49C3.68202 57.6432 4.36857 56.9567 5.21536 56.9567H6.90202C8.80815 56.9496 10.514 55.7714 11.1954 53.9912C11.3579 53.5619 11.5336 53.1393 11.7228 52.7231C12.5111 50.9828 12.1453 48.9366 10.8028 47.5773L9.59762 46.3767C8.99847 45.7783 8.9979 44.8073 9.59647 44.2082C9.59686 44.2078 9.59724 44.2074 9.59762 44.207L13.9308 39.8738C14.5296 39.2752 15.5002 39.2752 16.099 39.8738L17.3011 41.0744C18.6598 42.4182 20.7068 42.7841 22.447 41.9944C22.8625 41.8058 23.2857 41.6295 23.712 41.4669C25.4933 40.7879 26.6734 39.083 26.682 37.1767V35.49C26.682 34.6432 27.3686 33.9567 28.2154 33.9567H34.3487C35.1955 33.9567 35.882 34.6432 35.882 35.49V37.1767C35.8891 39.0828 37.0673 40.7886 38.8475 41.47C39.2768 41.6325 39.6995 41.8083 40.1156 41.9975C41.8557 42.7871 43.9027 42.4213 45.2614 41.0775L46.462 39.8784C47.0631 39.2839 48.0306 39.2839 48.6317 39.8784L52.9649 44.2116C53.5635 44.8104 53.5635 45.781 52.9649 46.3797L51.7643 47.5819C50.4219 48.9412 50.056 50.9874 50.8443 52.7277C51.0329 53.1433 51.2092 53.5665 51.3718 53.9927C52.0529 55.7716 53.7572 56.949 55.662 56.9567H57.3487C58.1955 56.9567 58.882 57.6432 58.882 58.49V64.6233Z" fill="#0E6F8E"/>
<path d="M45.0514 60.9433C45.0361 60.5753 45.01 60.2089 44.9655 59.8439C44.9165 59.4514 44.8582 59.0619 44.7769 58.6801C44.7233 58.4302 44.6527 58.1833 44.5853 57.9349C44.4994 57.6191 44.4028 57.3078 44.2955 57.0011C44.2203 56.788 44.1421 56.5764 44.0624 56.3663C43.865 55.8753 43.6392 55.3959 43.3862 54.9311C43.3663 54.8959 43.354 54.8575 43.3341 54.8223C42.9352 54.1123 42.4733 53.4394 41.9541 52.8121C41.9096 52.7569 41.859 52.7047 41.813 52.6511C41.6014 52.4011 41.3837 52.1589 41.1552 51.9273C41.0356 51.8031 40.9099 51.6866 40.7841 51.567C40.6308 51.4244 40.4775 51.2833 40.3241 51.1484C40.138 50.9868 39.9485 50.8304 39.7553 50.6792L39.5038 50.4921C37.1312 48.715 34.2464 47.7551 31.2821 47.7567C31.1287 47.7567 30.9754 47.7797 30.8221 47.7858C30.4955 47.795 30.1673 47.8134 29.8377 47.8471C29.6644 47.8655 29.4896 47.8855 29.3163 47.91C28.8165 47.9757 28.3204 48.0685 27.8305 48.1875C20.4473 50.0954 16.0087 57.6275 17.9166 65.0107C19.1739 69.876 22.975 73.674 27.8413 74.9274C27.8658 74.9274 27.8919 74.935 27.9179 74.9411C28.4475 75.0732 28.984 75.1758 29.5249 75.2478C29.8821 75.2923 30.2394 75.3015 30.5982 75.3183C30.8374 75.3306 31.0582 75.3659 31.3081 75.3659C31.7451 75.3659 32.199 75.3368 32.6621 75.2908C32.7111 75.2908 32.7602 75.277 32.8154 75.2708C33.188 75.2294 33.5652 75.1742 33.9501 75.0976C34.1034 75.0684 34.246 75.0301 34.3932 74.9963C34.6631 74.9335 34.9314 74.8675 35.2074 74.7863C35.4221 74.7219 35.6306 74.6467 35.8407 74.5731C36.0507 74.4995 36.2685 74.4198 36.4862 74.337C36.7039 74.2542 36.8864 74.1591 37.0842 74.0671C37.3418 73.9491 37.5979 73.8325 37.8509 73.6945H37.8601C39.2911 72.9285 40.6128 71.974 41.79 70.8563C42.108 70.5596 42.3846 70.2212 42.6119 69.8505C43.8086 67.9319 44.5949 65.7862 44.9211 63.5485C44.964 63.2525 45.0023 62.9566 45.0253 62.6545C45.0468 62.377 45.0621 62.101 45.0683 61.825C45.0683 61.7376 45.0805 61.6548 45.0805 61.5674C45.0821 61.3512 45.0606 61.1519 45.0514 60.9433ZM41.9955 61.9477C41.9955 62.0749 41.9847 62.2022 41.9771 62.3279C41.9495 62.699 41.9019 63.0701 41.8391 63.4427C41.266 66.6307 39.2866 69.3907 36.4509 70.956C36.2608 71.0557 36.0737 71.1492 35.8867 71.2351L35.7594 71.2964C34.8685 71.7008 33.9282 71.9855 32.9626 72.1428C32.8951 72.1535 32.8261 72.1658 32.7571 72.175C32.5655 72.2026 32.3769 72.2256 32.1898 72.2425C31.9429 72.2639 31.6945 72.2762 31.4415 72.2808C31.3342 72.2808 31.2284 72.2808 31.1211 72.2808C30.7582 72.2766 30.396 72.2542 30.0355 72.2133L29.8515 72.1919C29.4298 72.1367 29.0116 72.0579 28.5987 71.9557C22.856 70.4859 19.3922 64.6389 20.8619 58.8961C21.8331 55.1015 24.7943 52.1372 28.588 51.1622V51.1607C29.4689 50.9385 30.3736 50.825 31.2821 50.8233C31.7204 50.8258 32.1584 50.8555 32.5931 50.9123C32.7096 50.9261 32.8246 50.9475 32.9396 50.9644C33.2708 51.0165 33.5989 51.0825 33.9225 51.1653C34.0283 51.1929 34.1341 51.2174 34.2383 51.2465C35.0537 51.4819 35.8386 51.8123 36.5767 52.2309C36.6947 52.2999 36.8097 52.372 36.9263 52.4441C37.1685 52.5974 37.4031 52.7507 37.6347 52.9255C37.7589 53.016 37.8846 53.1049 38.0042 53.2015C38.3051 53.4419 38.5932 53.6978 38.8675 53.9682C38.9763 54.0786 39.076 54.1997 39.1818 54.3147C39.3581 54.5064 39.5299 54.7027 39.6939 54.9097C39.8074 55.0523 39.9163 55.1995 40.0236 55.3482C40.1769 55.569 40.3303 55.799 40.4683 56.0321C40.5449 56.1593 40.6216 56.2835 40.6998 56.4139C40.8976 56.7778 41.0737 57.1531 41.2273 57.5378C41.2886 57.6911 41.3407 57.8445 41.3959 57.9978C41.4956 58.2799 41.5815 58.5651 41.6566 58.8534C41.6949 59.0067 41.7379 59.1432 41.7701 59.2919C41.8596 59.7063 41.9246 60.1257 41.9648 60.5477C41.974 60.6597 41.974 60.7731 41.9817 60.8851C42.0031 61.2377 42.0093 61.5919 41.9955 61.9477Z" fill="#0E6F8E"/>
<path d="M88.0154 32.4233H83.1931C82.55 32.4298 81.9748 32.0249 81.764 31.4175C81.2885 29.9932 80.7131 28.604 80.0421 27.2606C79.7572 26.6804 79.8759 25.9829 80.3365 25.5295L83.7558 22.1055C85.5506 20.3094 85.5506 17.3988 83.7558 15.6027L77.2361 9.09366C75.4399 7.29889 72.5293 7.29889 70.7332 9.09366L67.3154 12.5099C66.8625 12.9703 66.166 13.0895 65.5858 12.8059C64.2422 12.1314 62.8526 11.5529 61.4274 11.0747C60.8175 10.866 60.4096 10.2902 60.4154 9.64566V4.82333C60.4154 2.28279 58.3559 0.223328 55.8154 0.223328H46.6154C44.0748 0.223328 42.0154 2.28279 42.0154 4.82333V9.64566C42.0219 10.2887 41.6171 10.8639 41.0095 11.0747C39.5851 11.5527 38.1958 12.1308 36.8526 12.8043C36.2725 13.0901 35.5746 12.9715 35.1215 12.5099L31.6976 9.09059C29.8994 7.301 26.9929 7.301 25.1947 9.09059L18.6872 15.5981C16.8915 17.3944 16.8915 20.3062 18.6872 22.1025L23.715 27.1395C24.3232 27.7286 25.294 27.7133 25.8832 27.105C26.458 26.5116 26.4593 25.5693 25.8862 24.9744L20.8554 19.9389C20.2568 19.3402 20.2568 18.3696 20.8554 17.7708L27.3628 11.2633C27.9616 10.6648 28.9322 10.6648 29.531 11.2633L32.9564 14.6827C34.3424 16.0768 36.4661 16.4253 38.225 15.5475C39.4396 14.9393 40.6954 14.4172 41.9832 13.985C43.842 13.3558 45.0901 11.6081 45.0821 9.64566V4.82333C45.0821 3.97654 45.7686 3.28999 46.6154 3.28999H55.8154C56.6622 3.28999 57.3487 3.97654 57.3487 4.82333V9.64566C57.3409 11.6078 58.589 13.3548 60.4476 13.9835C61.736 14.4159 62.9923 14.9383 64.2073 15.5475C65.9666 16.4207 68.0874 16.0719 69.4743 14.6811L72.8998 11.2633C73.4986 10.6648 74.4692 10.6648 75.0679 11.2633L81.5754 17.7723C82.173 18.3709 82.173 19.3404 81.5754 19.9389L78.1561 23.3644C76.7632 24.7511 76.415 26.8738 77.2913 28.6329C77.8994 29.8475 78.4215 31.1033 78.8537 32.3911C79.4826 34.2503 81.2304 35.4984 83.1931 35.49H88.0154C88.8622 35.49 89.5487 36.1765 89.5487 37.0233V46.2233C89.5487 47.0701 88.8622 47.7567 88.0154 47.7567H83.1931C81.231 47.7488 79.4839 48.9969 78.8553 50.8555C78.423 52.1439 77.9004 53.4003 77.2913 54.6153C76.4165 56.3744 76.7655 58.4959 78.1576 59.8823L81.5769 63.3077C82.1755 63.9065 82.1755 64.8771 81.5769 65.4759L75.0664 71.9833C74.4678 72.5809 73.4984 72.5809 72.8998 71.9833L67.8613 66.9555C67.2721 66.3472 66.3013 66.3318 65.6931 66.921C65.0848 67.5102 65.0694 68.481 65.6586 69.0892C65.6709 69.1018 65.6835 69.1145 65.6962 69.1267L70.7332 74.1545C72.5293 75.9493 75.4399 75.9493 77.2361 74.1545L83.7435 67.6486C85.5392 65.8523 85.5392 62.9405 83.7435 61.1442L80.3288 57.7233C79.8688 57.2702 79.7498 56.5739 80.0329 55.9937C80.7073 54.6501 81.2858 53.2606 81.764 51.8353C81.9727 51.2254 82.5485 50.8176 83.1931 50.8233H88.0154C90.5559 50.8233 92.6154 48.7639 92.6154 46.2233V37.0233C92.6154 34.4828 90.5559 32.4233 88.0154 32.4233Z" fill="#0E6F8E"/>
<path d="M65.3097 27.5289C57.5208 19.7562 44.9099 19.7562 37.1209 27.5289C36.5327 28.138 36.5496 29.1088 37.1587 29.697C37.7528 30.2709 38.6949 30.2709 39.289 29.697C45.8316 23.0661 56.5107 22.9946 63.1416 29.5372C69.7725 36.0797 69.844 46.7588 63.3014 53.3897C63.2485 53.4434 63.1952 53.4967 63.1416 53.5496C62.5325 54.138 62.5156 55.1086 63.104 55.7177C63.6924 56.3268 64.663 56.3437 65.2722 55.7553C65.2848 55.743 65.2975 55.7304 65.3097 55.7177C73.0824 47.9288 73.0824 35.3178 65.3097 27.5289Z" fill="#0E6F8E"/>
</g>
<defs>
<clipPath id="clip0">
<rect x="0.615356" y="0.223328" width="92" height="92" rx="6" fill="white"/>
</clipPath>
</defs>
</svg>
