<svg width="93" height="93" viewBox="0 0 93 93" fill="none" xmlns="http://www.w3.org/2000/svg">
<g clip-path="url(#clip0)">
<path d="M46.6154 0.223328C21.2103 0.223328 0.615356 20.8183 0.615356 46.2233C0.615356 71.6284 21.2103 92.2233 46.6154 92.2233C72.0204 92.2233 92.6154 71.6284 92.6154 46.2233C92.5866 20.8302 72.0085 0.252078 46.6154 0.223328ZM46.6154 89.1567C22.9039 89.1567 3.68202 69.9348 3.68202 46.2233C3.68202 22.5119 22.9039 3.28999 46.6154 3.28999C70.3268 3.28999 89.5487 22.5119 89.5487 46.2233C89.5217 69.9235 70.3155 89.1296 46.6154 89.1567Z" fill="#0E6F8E"/>
<path d="M46.6154 73.8233C45.7686 73.8233 45.082 74.5099 45.082 75.3567V78.4233C45.082 79.2701 45.7686 79.9567 46.6154 79.9567C47.4621 79.9567 48.1487 79.2701 48.1487 78.4233V75.3567C48.1487 74.5099 47.4621 73.8233 46.6154 73.8233Z" fill="#0E6F8E"/>
<path d="M63.4821 28.8798C63.1337 19.9769 55.9968 12.8394 47.0939 12.49C37.7823 12.2257 30.0198 19.56 29.7555 28.8716C29.7509 29.0331 29.7488 29.1949 29.7488 29.3567C29.7488 30.2035 30.4353 30.89 31.2821 30.89C32.1289 30.89 32.8154 30.2035 32.8154 29.3567C32.8124 21.7351 38.9883 15.5542 46.6099 15.5511C46.7427 15.5511 46.8754 15.5529 47.008 15.5567C54.2911 15.8425 60.1297 21.681 60.4155 28.9642C60.5581 34.041 57.9006 38.7861 53.4971 41.3167C48.292 44.3306 45.0856 49.8884 45.0821 55.9033V69.2234C45.0821 70.0701 45.7687 70.7567 46.6155 70.7567C47.4622 70.7567 48.1488 70.0701 48.1488 69.2234V55.9033C48.1536 50.9861 50.7744 46.4428 55.0289 43.977C60.4099 40.8833 63.6569 35.0843 63.4821 28.8798Z" fill="#0E6F8E"/>
</g>
<defs>
<clipPath id="clip0">
<rect width="92" height="92" fill="white" transform="translate(0.615356 0.223328)"/>
</clipPath>
</defs>
</svg>
