<?xml version="1.0" encoding="utf-8"?>
<!DOCTYPE svg PUBLIC "-//W3C//DTD SVG 20010904//EN" "http://www.w3.org/TR/2001/REC-SVG-20010904/DTD/svg10.dtd">
<svg version="1.0" xmlns="http://www.w3.org/2000/svg" width="802pt" height="802pt" viewBox="0 0 802 802" style="" preserveAspectRatio="xMidYMid meet">
<g fill="#FFFFFFFF" stroke="#FFFFFFFF">
<path d="M 291.000 76.879 C 281.357 80.039 273.801 86.593 269.406 95.612 C 266.593 101.385 266.530 101.886 266.179 121.226 L 265.820 140.951 171.160 141.226 L 76.500 141.500 70.543 144.425 C 63.497 147.884 57.177 154.063 53.888 160.708 C 51.849 164.827 51.515 166.974 51.508 176.000 C 51.501 185.562 51.749 186.972 54.284 191.784 C 57.984 198.807 63.438 204.093 70.612 207.612 L 76.500 210.500 234.569 211.000 L 392.638 211.500 386.779 227.000 C 368.256 275.999 343.908 325.221 318.699 364.633 L 309.659 378.766 301.282 367.346 C 280.506 339.026 259.125 304.848 246.755 280.181 C 238.110 262.943 235.019 259.119 226.229 254.792 C 220.165 251.807 218.701 251.500 210.521 251.500 C 202.893 251.500 200.644 251.902 195.954 254.101 C 188.315 257.684 183.911 261.832 179.908 269.215 C 176.667 275.193 176.500 275.997 176.500 285.660 L 176.500 295.820 185.158 313.160 C 200.270 343.424 224.466 381.647 250.792 416.845 C 257.643 426.005 263.450 434.210 263.696 435.078 C 264.292 437.182 221.076 481.268 200.984 499.053 C 172.789 524.008 147.040 543.570 123.747 557.729 C 106.752 568.061 100.889 576.723 100.889 591.500 C 100.889 601.777 103.834 608.994 110.920 616.080 C 118.608 623.768 125.361 626.294 137.000 625.835 C 147.459 625.423 150.674 623.961 172.108 609.879 C 199.656 591.778 229.323 568.421 256.490 543.443 C 270.718 530.362 301.085 500.006 306.723 493.228 L 310.277 488.957 329.888 508.267 C 353.394 531.411 371.084 546.133 378.955 549.100 C 386.526 551.953 400.393 551.463 406.849 548.114 C 420.594 540.984 427.656 527.479 425.898 511.685 C 424.745 501.332 421.038 495.874 407.484 484.571 C 395.385 474.481 361.460 441.812 357.852 436.775 L 355.900 434.050 359.779 428.775 C 396.957 378.221 437.189 298.346 460.572 228.665 L 466.500 211.000 493.568 211.000 C 523.895 211.000 527.730 210.415 536.550 204.448 C 541.984 200.772 544.382 197.977 548.118 190.969 C 550.192 187.077 550.500 185.144 550.500 176.000 C 550.500 166.446 550.249 165.024 547.716 160.216 C 544.016 153.193 538.562 147.907 531.388 144.388 L 525.500 141.500 430.840 141.226 L 336.180 140.951 335.840 121.226 C 335.505 101.763 335.461 101.421 332.575 95.543 C 329.092 88.449 322.882 82.124 316.292 78.957 C 312.615 77.190 309.405 76.585 302.500 76.357 C 297.550 76.194 292.375 76.429 291.000 76.879 "/></g>
<g fill="#FFFFFFFF" stroke="#FFFFFFFF">
<path d="M 566.929 317.304 C 557.426 319.998 549.300 326.514 545.137 334.778 C 539.201 346.560 401.733 681.928 401.038 686.321 C 395.970 718.386 434.140 739.254 458.591 717.786 C 464.165 712.892 465.730 709.808 479.278 677.000 C 486.206 660.225 492.863 644.138 494.071 641.250 L 496.267 636.000 576.000 636.000 L 655.733 636.000 657.929 641.250 C 659.137 644.138 665.790 660.225 672.712 677.000 C 679.635 693.775 686.580 709.378 688.145 711.673 C 694.635 721.191 704.153 726.000 716.500 726.000 C 727.048 726.000 733.942 723.218 741.080 716.080 C 748.793 708.367 751.306 701.626 750.802 690.000 L 750.433 681.500 679.602 510.000 C 640.645 415.675 607.613 336.338 606.198 333.696 C 599.184 320.607 581.426 313.194 566.929 317.304 M 601.635 504.750 L 626.713 565.500 576.024 565.500 L 525.335 565.500 550.390 504.750 C 564.170 471.338 575.695 444.000 576.001 444.000 C 576.307 444.000 587.842 471.338 601.635 504.750 "/></g>
</svg>
